<?xml version="1.0" encoding="utf-8"?>
<!-- Generator: Adobe Illustrator 23.0.3, SVG Export Plug-In . SVG Version: 6.00 Build 0)  -->
<svg version="1.1" id="Layer_1" xmlns="http://www.w3.org/2000/svg" xmlns:xlink="http://www.w3.org/1999/xlink" x="0px" y="0px"
	 viewBox="0 0 1640 101" style="enable-background:new 0 0 1640 101;" preserveAspectRatio="none" xml:space="preserve">
<g id="Home">
	<g id="Home-Header-XL" transform="translate(-141.000000, -74.000000)">
		<g id="Menu" transform="translate(141.000000, 74.000000)">
			<g id="Main-Nav-Bar">
				<polygon class="st0" points="465.7,0 451.2,0.3 436.7,0.4 422.1,0.2 407,0.7 391.9,0.9 376.8,1.5 361.7,2.3 346.6,2.2 
					331.5,-0.1 316.4,0.1 301.3,1.5 286.1,2.1 271,1 255.9,1.7 240.8,0 225.7,1.9 210.6,1.5 195.4,1.8 180.3,0.3 165.2,-0.3 
					150.1,0.3 135,2.6 120.1,0 105.1,1 89.9,0 74.9,2.6 60,1.9 45.5,1.9 30.6,1.6 15.7,1.3 0.4,0 0.6,15.2 0.6,26.2 0,39.6 1.3,63 
					0,85.6 0,101 13.5,100.9 28,101 42.4,100.1 56.8,99.3 71.3,99.9 85.7,100.8 100.2,100.6 114.6,99.9 129.1,100.3 143.5,99.5 
					157.9,99.8 172.3,99.1 186.6,99.9 200.9,99.4 215.2,98.7 229.6,99.3 243.9,100.7 258.2,100.3 272.5,100.9 286.9,100.9 
					301.2,100.8 315.5,100.5 329.9,100.8 344.2,100.2 358.5,100.6 372.8,99.5 387.2,100.9 401.5,100.5 415.8,100.1 430.1,99.9 
					444.5,100.8 458.7,100.5 473.1,100.2 487.5,101 501.7,100.3 516.1,100.4 530.4,100.4 546.6,100.5 560.9,99.8 575.2,100.7 
					589.5,101 603.6,99.9 617.9,100.3 632.2,100.8 647,100.5 661.8,101 676.5,100.4 691.3,100.4 706.3,100.9 721.1,101 735.8,100.6 
					750.6,100.8 765.3,101 780.1,100.3 794.9,100.7 809.7,100.7 824.4,101 839.2,101 853.9,100.2 868.7,100.4 883.5,100.9 
					899.4,100.7 913,99.8 927.8,99.8 942.5,99.8 957.3,100.1 972.1,100.4 986.8,100.3 1001.6,100.4 1016.4,99.6 1030.8,101 
					1044.8,100.8 1059.5,99.8 1075.4,101 1090.2,100.2 1104.9,100.1 1119.7,100.7 1134.5,101 1149.3,101 1164,99.1 1178.8,99 
					1193.5,100.1 1208.3,100 1223.1,100.6 1237.8,100.5 1252.6,100.7 1267.4,101 1282.1,100.7 1297,100.8 1311.9,100.9 1326.8,99.8 
					1341.7,99.3 1356.5,100.3 1371.4,99.4 1386.3,100.4 1401.2,99.5 1416.1,99.7 1431,99.3 1445.8,100.7 1460.7,100 1475.6,100.1 
					1490.5,100.2 1505.4,100 1520.2,100.8 1535.1,100 1550,99.9 1564.7,99.3 1579.4,99.6 1594,99.3 1608.7,100.2 1622.4,99.2 
					1639,101.2 1640,85.2 1640,73.4 1639.7,62.5 1640,51 1639.4,41.5 1640,27.5 1639,16.7 1640,0 1623,0.9 1608.8,1.2 1594.6,0.3 
					1580.4,0.4 1566.2,0.5 1552,1 1537.6,0.9 1523.1,0.6 1508.7,1 1494.3,1 1479.9,0.4 1465.5,0.2 1451,0.5 1437.4,1.5 1423,1 
					1408.6,0.9 1394.2,1.1 1379.7,0.3 1365.3,1.6 1350.9,1.7 1336.4,1.4 1322,0.9 1307.6,1 1293.2,0.5 1278.7,1.3 1264.2,1 
					1249.7,1.9 1235.1,2.1 1220.6,2.3 1206.1,2.1 1191.6,2.6 1177.1,1.3 1162.6,2.4 1148,1.9 1133.5,2.2 1119,2 1104.5,2.8 
					1089.9,2.6 1075.4,1.9 1060.9,1.9 1046.4,1.7 1031.9,2.1 1017.4,2 1002.8,2.6 988.3,1.5 973.8,1.8 959.3,1.2 944.8,0.9 
					930.3,0.7 915.8,1.9 901.2,1.8 886.7,1.5 872.2,1.1 857.7,1.6 843.2,0.9 828.6,1.6 814.1,1.5 799.6,1.2 785.1,1.2 770.5,1.1 
					756,1.2 741.5,1.3 727,1.4 712.5,2.4 698,1.7 683.4,2.1 668.9,2.5 654.4,2.2 639.9,2.4 625.4,1.6 610.9,1.5 596.3,1.9 581.8,1 
					567.3,1.1 552.8,0.5 538.3,0.8 523.8,0 509.2,0.6 494.7,1.1 480.2,0.2 				"/>
			</g>
		</g>
	</g>
</g>
</svg>
