<svg version="1.1" id="Layer_1" xmlns="http://www.w3.org/2000/svg" xmlns:xlink="http://www.w3.org/1999/xlink" preserveAspectRatio="none" x="0px" y="0px"
	 viewBox="0 0 328 70" enable-background="new 0 0 328 70" xml:space="preserve">
<g id="Symbols">
	<g id="Button-_x2F_-Desktop-_x2F_-Normal">
		<g id="Button">
			<path id="Fill-1" fill="#000000" d="M325.9,50c-0.4,4,0.8,8.1-1.1,11.9c-0.1,0.1-0.1,0.2-0.2,0.3
				c-0.3,0.1-0.6,0.3-0.6,0.6c0,0.2,0,0.4-0.1,0.6c-0.1,0.1-0.1,0.2-0.2,0.3c-0.4,0.2-0.6,0.4-0.6,0.7c0,0.2-0.3,0.4-0.4,0.5
				c0.7,0.4-6.6,3.5-7.3,3.8c-4,1.5-10.4,1.6-14.7,0.9c-1.3-0.2-1.7-0.7-3.3-0.7c-1.9,0-3.9,0-5.8,0c-3.9,0-7.8,0-11.6,0
				c-7.9,0-15.9,0-23.8,0c-2,0-4.6-1.3-6.3-0.3c-0.1,0.1-0.2,0.2-0.4,0.2c-0.3,0.1-0.6,0.1-1,0.1c-1.3,0-1.6,0-1.9,0
				c-0.3,0-0.6,0-0.9-0.1c-0.6-0.5-1.2-0.9-1.8,0c-2.1,0.1-3.8,0.1-5.5,0.1c-0.9-0.7-1.7-0.8-2.5-0.7c-0.5,0-1.1,0-1.6,0
				c-0.8,0-1.5,0-2,0.6c-1.6,0.2-2.7,0.2-3.8,0.1c-0.6-0.1-0.7-0.6-1.3-0.6c-1.1,0.1-2.4-0.5-3.4,0.4c-1,0.3-1.6,0.2-2.2,0.2
				c-2.8,0-4.9-1.1-7.7-0.5c-1.7,0.3-3.4,0.8-5.1,0.6c-1.1-0.1-2-0.5-3.1-0.6c-0.7-0.1-1.5,0-2.2,0.1c-5.4,0.7-10.9,0.7-16.2,0.1
				c-0.7-0.1-1.4-0.2-2.2-0.1c-0.5,0-1.1,0.1-1.6,0.2c-1.7,0.3-3.4,0.3-5.1,0.3c-2.8,0-5.6-0.1-8.4-0.4c-1.7-0.2-6-1.4-7.1,0.1
				c-2.6,0.1-4.8,0.1-6.9,0.1h-18.2h-2.8c-0.6,0-1.2,0-1.9,0c-0.3,0-0.7,0-1,0c-1.9-1-2.6-0.2-4.2,0c-2,0.3-4.5,0-6.5-0.5
				c-0.3-0.1-0.6-0.2-0.9-0.1c-0.4,0-0.8,0.3-1.2,0.4c-0.6,0.2-1.3,0.2-2,0.2c-7.3,0-14.7,0-22,0h-2.9h-2h-2h-4.7h-3.8h-1.2H62.8
				h-1.2h-2.1H52h-5.6h-1.1c-2,0-3.3,0.2-5.3,0.6c-0.7,0.1-1.4,0.1-2.1,0.1c-5.1,0-9.7-0.3-14.7-0.9c-0.5-0.1-1-0.1-1.5-0.2
				c-2.3-0.3-4.8-0.2-7-0.5c-0.9-0.7-1.6-0.7-2.4-0.7c-4.4,0-8.9-0.7-9-4c0-0.2,0-0.5,0-0.7V62v-0.8v-0.8v-3.3
				c0-1.1-0.8-1.4-0.9-2.3c-0.4-2.3-2-4.9-2-7.1c0-3.3-0.7-6.6-0.4-9.9c0.1-1.7,0.7-3.3,0.8-5c0-1.3-0.4-2.6-0.4-3.9
				c0-2.9,0-5.8,0-8.7c0-1.1,0-2.2,0.1-3.3c0.2-2,0.9-4,1.5-6c1-3.2,2.1-7.8,6.8-9c1.1-0.3,2.1-0.5,3.3-0.6c0.6-0.1,1.2-0.1,1.8-0.3
				c0.3-0.1,0.5-0.3,0.8-0.4c0.3-0.1,0.6-0.1,1-0.1c3.9,0,8.1-0.3,12,0c1,0.8,1.9,0.7,2.7,0.7c1.5,0.1,3-0.2,4.5,0.2
				c0.5,0.4,1.1,0.6,1.8,0.6c5.6,0,11.1,0,16.8-0.3c5.1-0.3,10.2-0.5,15.3,0c0.9,0.1,1.8,0.2,2.6,0.1c0.5-0.1,1-0.2,1.5-0.3
				c2.1-0.4,4.3,0.5,6.4,0.7c3.2,0.3,6.6,0,9.9,0c0.9,0,1.8,0,2.7-0.1c1-0.2,1.9-0.5,2.9-0.6c1.1-0.1,2.3,0.1,3.4,0.3
				c3.5,0.5,11.3,1.7,14.4-0.1c3.9-0.2,6.8,0.6,10.2,0.6c2.3,0,4.7-0.3,7-0.6c6.5-0.6,13.2-0.3,19.7-0.3h6.4c0.6,0,1.3,0,1.9,0
				c1.1,0.9,1.7,0.6,2.3,0.1c4.8-0.1,9-0.3,13.1,0.3c4,0.6,7.5-0.5,11.5-0.6c2.7-0.1,5.4,0.6,8.1,0.8c3.2,0.2,6.4-0.1,9.6-0.3
				c6.4-0.5,12.8-0.5,19.1,0c0.7,0,1.4,0.1,2.1,0.1c0.6,0,1.2,0,1.9,0c1.8,0,3.7,0,5.5,0c1.5,0,3,0,4.5,0c1.7,0,3.3,0,5,0
				c1.3,0,2.7,0,4,0c5.3,0,10.6-0.2,15.8-0.2c6.9,0,13.8-0.4,20.7-0.7c9-0.4,18-0.7,27-0.8c0.4,0,0.7,0,1.1,0
				c0.9,0.8,1.7,0.7,2.5,0.7h1.7c0.6,0,1.2-0.1,1.8,0.1c1.9,0.4,4,0.9,6,1.5c0.4,0.1,0.8,0.2,1.2,0.4c1.1,0.4,1.9,1.2,2.7,1.9
				c0.3,0.3,0.7,0.6,0.8,0.9c0.1,0.3,0.2,0.6,0.2,0.9c0.2,2.7,0.4,5.4,0.6,8.1c0,0.3,0.1,0.7,0.1,1c0.1,1.5,0.5,3,0.5,4.5
				c0,0.4,0,0.8,0.1,1.3c0,0.5,0.7,0.6,0.9,1c0.3,0.6,0.3,1.3,0.1,1.9c-0.7,1.4-0.7,2.4-1.1,3.9c-0.1,0.5-0.3,0.9-0.5,1.4
				c-0.7,1.5-2.4,3.1-2.2,4.7c0.2,1.9,2.9,3.1,2.9,4.8c0,2.4-0.2,4.7-0.5,7C326.2,47.4,326,48.7,325.9,50z"/>
		</g>
	</g>
</g>
</svg>
